<?xml version="1.0" encoding="UTF-8"?><svg id="Fit" xmlns="http://www.w3.org/2000/svg" width="3615.01" height="661.62" viewBox="0 0 3615.01 661.62"><path d="M0,637.5V0h362.1v637.5H0Z" fill="#fff"/><path d="M396.94,0h334.05v514.25h13.6V140.25h329.8v497.25H396.94V0Z" fill="#fff"/><path d="M1108.38,0h334.05v515.1h13.6V0h334.05v637.5h-681.71V0Z" fill="#fff"/><path d="M2540.62,637.5V0h362.1v637.5h-362.1Z" fill="#fff"/><path d="M3490.91,637.5h-553.35V0h334.05v40.8h343.4v124.1h-343.4v349.35h7.65c3.4,0,5.95-5.95,5.95-11.9V178.5h329.8v336.6c0,68.85-51,122.4-124.1,122.4Z" fill="#fff"/><path d="M2513.96,189.94v30.12l-5.29,29.61c-7.06,29.79-22.4,56.69-41.89,79.93l-287.35,291.61c-8.98,8.27-21.5,8.49-30.85.68l-288.07-292.28c-17.92-21.19-32.11-45.49-39.96-72.28l-7.23-35.89c.62-10.7-.86-22.29,0-32.86,11.88-146.86,195.65-229.71,299.57-136.09,39.74,38.14,12.66,133.36,59.26,133.44,45.84-.08,13.46-111.12,79.96-153.94,116.32-56.98,252.09,29.74,261.85,157.97Z" fill="#fff"/></svg>