<?xml version="1.0" encoding="UTF-8"?><svg id="Layer_1" xmlns="http://www.w3.org/2000/svg" width="593" height="585" viewBox="0 0 593 585"><path d="M419,201c-7.95-1.49-14.91-4.76-22.99-6.51-39.36-8.5-85.18-.82-125.55-3.53-8.42.11-12.77,7.29-14.21,14.79-6.64,34.69-11.78,73.07-16.79,108.23-.22,1.53-1.4,4.02.53,5.01-1.49,2.38-2.12,5.06-2.72,7.78-7.16,32.33-12.31,72.05-17.28,105.22h-72c-4.32-1.5-6.72-4.61-6.9-9.38l48.73-303.29c2.05-4.18,5.87-7.78,10.64-8.36,73.71,7.66,234.2-34.63,218.53,90.03Z" fill="#01288e"/><path d="M220,433c.05-.33-.05-.67,0-1,4.97-33.17,10.12-72.9,17.28-105.22.6-2.72,1.24-5.39,2.72-7.78,2.11-3.39,6.59-6.35,10.59-6.91,12.5-1.77,29.63.52,42.9-.1,69.81-3.24,115.11-38.22,125.51-108.99,36.46,17.3,33.66,63.64,23.26,96.76-14.23,45.35-49.76,69.53-96.72,72.28-12.57.74-30.48-4.57-35.59,10.41-7.37,21.62-6.7,54.18-12.61,77.39-1.96,7.69-5.39,12.41-13.8,13.2-14.55,1.37-44.5,1.34-59.09,0-6.32-.58-8.49-3.19-8.54-9.55-.05-7.32,2.88-22.4,4.09-30.49Z" fill="#019be3"/><path d="M419,201c-.08.64.09,1.36,0,2-10.4,70.76-55.7,105.75-125.51,108.99-13.28.62-30.4-1.67-42.9.1-4,.57-8.47,3.52-10.59,6.91-1.93-1-.75-3.49-.53-5.01,5.01-35.16,10.14-73.54,16.79-108.23,1.44-7.5,5.79-14.69,14.21-14.79,40.37,2.71,86.19-4.97,125.55,3.53,8.08,1.75,15.04,5.02,22.99,6.51Z" fill="#00196c"/><path d="M220,432c-.05.33.05.67,0,1-21.81-1.45-46.05,1.93-67.57.04-1.97-.17-2.69-.43-4.43-1.04h72Z" fill="#001785"/></svg>