<?xml version="1.0" encoding="UTF-8"?><svg id="cart-w" xmlns="http://www.w3.org/2000/svg" width="40.99" height="40.21" viewBox="0 0 40.99 40.21"><path d="M11.92,40.21c-.99,0-1.84-.35-2.54-1.06s-1.05-1.56-1.05-2.55.35-1.84,1.06-2.54c.71-.7,1.56-1.05,2.55-1.05s1.84.35,2.54,1.06c.7.71,1.05,1.56,1.05,2.55s-.35,1.84-1.06,2.54c-.71.7-1.56,1.05-2.55,1.05ZM31.92,40.21c-.99,0-1.84-.35-2.54-1.06s-1.05-1.56-1.05-2.55.35-1.84,1.06-2.54,1.56-1.05,2.55-1.05,1.84.35,2.54,1.06c.7.71,1.05,1.56,1.05,2.55s-.35,1.84-1.06,2.54-1.56,1.05-2.55,1.05ZM9.56,7.21l5.3,10.99h14.36l6.01-10.99s-25.67,0-25.67,0ZM7.91,3.95h33.07l-9.7,17.53H13.94l-2.72,5.07h24.44v3.26H5.72l5.76-10.58L3.95,3.26H0V0h6.07s1.85,3.95,1.85,3.95ZM14.86,18.21h14.36-14.36Z" fill="#ff4d5a"/></svg>